<svg id="Layer_1" enable-background="new 0 0 512.015 512.015" height="512" viewBox="0 0 512.015 512.015" width="512" xmlns="http://www.w3.org/2000/svg"><g><path d="m459.124 243.619c48.548-48.548 40.616-132.231 40.254-135.771l-1.242-12.157-12.158-1.241c-.267-.026-6.646-.666-16.59-.666-25.357 0-73.192 4.112-108.655 31.657l-5.83 4.528.401 96.414z" fill="#70d840"/><path d="m459.124 243.619c48.548-48.548 40.616-132.231 40.254-135.771l-1.242-12.157-12.158-1.241c-.267-.026-6.646-.666-16.59-.666-25.357 0-73.192 4.112-108.655 31.657l-5.83 4.528.401 96.414z" fill="#00cb75"/><path d="m156.71 226.383.401-96.414-5.83-4.528c-35.463-27.545-83.298-31.657-108.655-31.657-9.948 0-16.325.64-16.591.666l-12.157 1.242-1.242 12.156c-.361 3.539-8.294 87.223 40.252 135.769z" fill="#70d840"/><path d="m256.007 41.127c-74.717 0-135.504 60.787-135.504 135.504 0 14.765 2.367 29.295 7.035 43.187l1.419 4.224 127.05 100.463 127.05-100.463 1.419-4.224c4.668-13.892 7.035-28.422 7.035-43.187 0-74.716-60.786-135.504-135.504-135.504z" fill="#6253af"/><path d="m256.007 41.127v283.377l127.05-100.463 1.419-4.224c4.668-13.892 7.035-28.422 7.035-43.187 0-74.715-60.786-135.503-135.504-135.503z" fill="#463b83"/><path d="m376.511 199.879c-52.416 0-97.977 29.916-120.504 73.571-22.527-43.654-68.087-73.571-120.504-73.571-74.716 0-135.503 60.788-135.503 135.504s60.787 135.504 135.503 135.504c52.416 0 97.977-29.916 120.504-73.571 22.527 43.654 68.087 73.571 120.504 73.571 74.717 0 135.503-60.787 135.503-135.504s-60.786-135.504-135.503-135.504z" fill="#5f6fff"/><path d="m376.511 199.879c-52.416 0-97.977 29.916-120.504 73.571v123.866c22.527 43.654 68.087 73.571 120.504 73.571 74.717 0 135.503-60.787 135.503-135.504s-60.786-135.504-135.503-135.504z" fill="#6253af"/><g><path d="m120.503 380.882h30v30.002h-30z" fill="#6253af"/></g><g><path d="m361.511 380.882h30v30.002h-30z" fill="#6253af"/></g><g><path d="m241.007 101.13h30v30.002h-30z" fill="#5f6fff"/></g><g><path d="m361.511 380.882h30v30.002h-30z" fill="#463b83"/></g><path d="m256.007 101.13h15v30.002h-15z" fill="#6253af"/></g></svg>