<svg width="28" height="28" viewBox="0 0 28 28" fill="none" xmlns="http://www.w3.org/2000/svg">
<g clip-path="url(#clip0_21815_62135)">
<path d="M26.6872 17.1506C28.3059 21.7443 24.8934 25.2006 21.0872 25.8568C17.2809 26.4693 13.0372 24.2818 12.8622 19.4256C12.5997 12.9943 17.2809 13.7381 18.9434 13.4756C21.6997 13.0381 24.6309 11.2881 26.6872 17.1506Z" fill="#D33B23"/>
<path d="M19.7314 14.875C18.8127 13.825 15.0939 10.5 16.3627 3.9375" stroke="#83BF4F" stroke-width="0.5" stroke-miterlimit="10"/>
<path d="M16.8434 18.4617C17.8059 23.843 13.2997 27.1242 8.92469 27.1242C4.54969 27.1242 0.26219 23.8867 0.96219 18.4617C1.92469 11.243 6.99969 12.9492 8.92469 12.9492C12.0747 12.9055 15.6622 11.5055 16.8434 18.4617Z" fill="#EF4D3C"/>
<path d="M8.92578 14.4375C8.92578 12.6438 11.5508 3.28125 23.8445 1.3125" stroke="#9FC427" stroke-width="0.5" stroke-miterlimit="10"/>
<path d="M5.81836 13.8242C6.82461 13.9555 7.74336 14.1305 8.66211 14.218C9.14336 14.2617 9.58086 14.3055 10.0621 14.3492C10.5434 14.393 11.0246 14.393 11.5059 14.393C11.0684 14.6555 10.5871 14.7867 10.0621 14.8742C9.58086 14.9617 9.05586 14.9617 8.57461 14.918C8.09336 14.8742 7.56836 14.743 7.13086 14.568C6.64961 14.3492 6.16836 14.1305 5.81836 13.8242Z" fill="#CE0F00"/>
<path d="M16.8438 15.2258L19.2937 14.657C19.6875 14.5695 20.0812 14.4383 20.475 14.3508L21.7 13.957C21.4375 14.307 21.0875 14.6133 20.6937 14.7883C20.3 15.007 19.8625 15.182 19.4688 15.2695C19.0312 15.357 18.5938 15.4445 18.1562 15.4445C17.675 15.4445 17.2375 15.4008 16.8438 15.2258Z" fill="#A51000"/>
<path d="M20.2557 3.10625C18.5932 7 24.3244 12.3812 24.3244 12.3812C24.3244 12.3812 23.7557 8.3125 25.2869 4.68125C26.2932 2.40625 23.8432 0.875 23.8432 0.875C23.8432 0.875 21.0869 1.1375 20.2557 3.10625Z" fill="#64892F"/>
</g>
<defs>
<clipPath id="clip0_21815_62135">
<rect width="28" height="28" fill="white"/>
</clipPath>
</defs>
</svg>
