<svg id="Layer_1" enable-background="new 0 0 512.213 512.213" height="512" viewBox="0 0 512.213 512.213" width="512" xmlns="http://www.w3.org/2000/svg"><g><g><path d="m503.2 320.334c.236-.91.463-1.826.688-2.743-.222.917-.455 1.83-.688 2.743z" fill="#afe6ff"/><path d="m256.107 2.213c-98.131 0-158.574 55.347-158.741 55.441-3.787 17.481-10.374 42.85-10.374 61.465 0 140.833 118.763 254.972 259.596 254.972 60.017 0 115.159-27.944 158.719-62.639.178-1.087 5.8-23.477 5.8-54.239 0-140.832-114.168-255-255-255z" fill="#afe6ff"/><path d="m346.565 366.892c-140.833 0-255-114.167-255-255 0-18.615 2.013-36.757 5.8-54.239-.006.005-.011.01-.017.014-58.644 46.721-96.241 118.738-96.241 199.546 0 114.041 74.862 210.597 178.123 243.207l148.799 1.507c85.902-25.212 152.974-94.438 175.171-181.593.233-.913.466-1.826.688-2.743.106-.436 1.068-4.522 1.418-6.139-43.559 34.695-98.724 55.44-158.741 55.44z" fill="#a0cafe"/></g><g><g><path d="m315.761 490.715h-.788c-21.52 0-38.966-17.446-38.966-38.966v-23.662c0-.093 0-.186.001-.278.067-13.157 7.679-25.192 19.457-31.057 1.456-.725-33.701-2.279-33.701-2.279.016.217.033.435.033.663v79.596c0 5.398-4.567 7.839-8.72 7.346h-28.683v28.169c10.391 1.291 20.973 1.968 31.714 1.968 24.977 0 49.109-3.604 71.918-10.299-.566-6.28-5.839-11.201-12.265-11.201z" fill="#fff"/><path d="m363.762 163.283c-5.698-15.692-13.359-30.561-23.105-43.998h-17.064c-.005-.124-.013-.249-.017-.373h-140.134c-.004.124-.013.249-.017.373h-17.064c-9.746 13.438-17.408 28.307-23.106 43.998z" fill="#e1faff"/></g><path d="m179.233 500.41c15.859 5.008 32.389 8.501 49.417 10.328-1.739-2.166-2.763-4.93-2.708-7.937.124-6.781 5.942-12.086 12.723-12.086h.379c18.506 0 33.987-12.904 37.964-30.203-.035-.268-1.002-3.973-1.002-8.764.523-19.074-.899-24.15 1.002-31.926-2.417-9.89-9.119-18.423-18.455-23.072-1.446-.72-2.876-1.487-4.296-2.279h-47.016c4.173 2.316 6.591 3.206 10.123 5.934.194.15.387.302.578.456 3.642 2.936 6.681 6.569 8.904 10.695 1.902 3.529 3.211 7.412 3.805 11.513.514 3.555.503 29.272.159 32.663-2.002 19.715-18.653 34.982-38.765 34.982-11.204.207-12.71 9.552-12.812 9.696z" fill="#e1faff"/><g><path d="m172.661 45.431-1.566-11.904-1.299-9.873c-.553-4.309 1.38-8.148 5.171-10.269 1.637-.917 3.366-1.37 5.074-1.37 2.248 0 4.461.785 6.383 2.333.672.541 1.247 1.145 1.748 1.786.074-.024.15-.043.224-.066 1.861-3.516 4.82-6.468 8.326-8.419-.838-.94-1.757-1.83-2.772-2.648-7.228-5.819-16.748-6.62-24.845-2.088s-12.394 13.064-11.21 22.287l1.248 9.485 1.566 11.905 42.042 319.525 11.897-1.565z" fill="#a0af32"/></g><g><path d="m115.215 50.973c-3.053 0-5.664-2.32-5.965-5.421-.32-3.298 2.095-6.231 5.393-6.551l66.331-6.432c4.302-.417 7.609-3.138 8.848-7.279 1.238-4.141-.032-8.231-3.398-10.942l7.526-9.347c7.19 5.791 10.014 14.882 7.368 23.728-2.646 8.845-9.998 14.893-19.187 15.784l-66.331 6.432c-.195.019-.391.028-.585.028z" fill="#bec332"/></g><g><path d="m374.555 208.293h-174.836l-11.984 121.447s27.61 69.147 29.324 70.441c11.594 4.001 23.909 6.107 36.451 6.107 12.542 0 24.856-2.107 36.451-6.107 1.713-1.294 3.545-2.455 5.505-3.431 57.661-28.716 89.428-109.961 79.089-188.457z" fill="#fa735f"/></g><g><path d="m281.554 396.75c-47.234-23.523-80.978-85.62-80.978-158.538 0-10.211.663-20.21 1.932-29.92h-70.063c-10.438 78.998 21.988 160.01 79.11 188.457 1.959.976 3.791 2.137 5.505 3.431 11.594 4.001 23.909 6.107 36.451 6.107 12.023 0 23.829-1.956 35-5.64-.482-.159-.971-.302-1.451-.467-1.715-1.293-3.547-2.454-5.506-3.43z" fill="#fa503c"/></g><g><path d="m199.719 208.937h174.87c-2.101-16.446-5.934-32.073-11.24-46.511h-163.63z" fill="#fab9af"/></g><g><path d="m132.43 208.937h70c2.101-16.446 5.934-32.073 11.24-46.511h-70c-5.233 14.24-9.147 30.122-11.24 46.511z" fill="#fa735f"/></g><g><g><path d="m175.957 162.461 26.796 203.655 11.898-1.565-26.591-202.09z" fill="#fa2d14"/></g></g><g><path d="m186.509 189.878c1.95 2.276 3.986 4.503 6.141 6.657 45.575 45.575 119.467 45.575 165.043 0s45.575-119.467 0-165.042c-2.155-2.155-4.382-4.191-6.657-6.141l-13.677 13.677-59.987 77.184-77.184 59.987z" fill="#ffd23c"/><path d="m200.186 176.201c1.913 2.302 3.942 4.54 6.1 6.698 38.044 38.044 99.726 38.044 137.77 0s38.044-99.726 0-137.77c-2.158-2.158-4.396-4.187-6.698-6.1z" fill="#fff5aa"/><g fill="#ffe65a"><path d="m265.339 137.75-31.892 31.892c-2.79 2.79-2.237 7.441 1.109 9.531 7.282 4.549 15.158 7.762 23.283 9.637 3.835.885 7.5-2.025 7.5-5.961z"/><path d="m298.907 104.182h45.099c3.936 0 6.846-3.665 5.961-7.5-1.875-8.125-5.088-16.001-9.637-23.283-2.09-3.346-6.741-3.899-9.531-1.109z"/><path d="m285.002 137.751v45.098c0 3.936 3.665 6.846 7.5 5.961 8.124-1.875 16.001-5.088 23.282-9.637 3.346-2.09 3.899-6.741 1.109-9.531z"/><path d="m298.907 123.846 31.892 31.892c2.79 2.79 7.441 2.237 9.531-1.109 4.549-7.282 7.762-15.158 9.637-23.283.885-3.835-2.025-7.5-5.961-7.5z"/></g></g><g><g><ellipse cx="214.787" cy="144.309" fill="#e20a62" rx="31.096" ry="36.815" transform="matrix(.977 -.215 .215 .977 -26.037 49.64)"/></g><g><path d="m271.969 29.94c-14.534 8.438-35.274 37.141-41.842 71.466-1.919 9.434-3.013 19.069-3.388 28.757l-4.348-.06c-.097-9.903.54-19.849 2.051-29.707 5.175-36.469 25.28-67.539 42.119-78.929z" fill="#a55a3c"/></g><g><ellipse cx="238.243" cy="144.309" fill="#fa2d14" rx="36.815" ry="31.096" transform="matrix(.215 -.977 .977 .215 46.015 345.885)"/></g></g></g></g></svg>