<svg height="512" viewBox="0 0 64 64" width="512" xmlns="http://www.w3.org/2000/svg"><g id="Flat"><g id="Color_copy" data-name="Color copy"><path d="m60.932 31.789a1.855 1.855 0 0 0 -1.546-1.113 12.535 12.535 0 0 0 -23.123 9.324 12.535 12.535 0 0 0 24.1-6.395 1.855 1.855 0 0 0 .569-1.816z" fill="#efad1b"/><path d="m60.36 33.61a12.535 12.535 0 0 1 -24.1 6.39 12.065 12.065 0 0 1 5.05-13.86 12.269 12.269 0 0 0 15.6 7.3 12.546 12.546 0 0 0 3.81-2.03 1.278 1.278 0 0 1 .21.38 1.842 1.842 0 0 1 -.57 1.82z" fill="#d8950f"/><circle cx="56" cy="30" fill="#d8950f" r="2"/><circle cx="53" cy="33" fill="#d8950f" r="1"/><circle cx="53" cy="27" fill="#d8950f" r="1"/><circle cx="51" cy="30" fill="#d8950f" r="1"/><path d="m7 55a12.141 12.141 0 0 1 10.174-9.09l6.826-.91-.756 11.024-5.4-2.412a10.5 10.5 0 0 0 -10.844 1.388z" fill="#52b788"/><path d="m18.428 45.743-1.254.167a12.125 12.125 0 0 0 -7.02 3.5 16.848 16.848 0 0 1 2.015.489 26.088 26.088 0 0 0 -5.169 5.101 10.5 10.5 0 0 1 10.846-1.388l1.618.723 3.78 1.689.489-7.138.267-3.886-.8.142z" fill="#40916c"/><path d="m5 41a12.488 12.488 0 0 1 18.278-2.092l4.722 4.092-1 9-9.3-9.3a10.555 10.555 0 0 0 -12.7-1.7z" fill="#95d5b2"/><path d="m14.917 37a14.016 14.016 0 0 0 -8.757 3.072l-1.16.928a10.555 10.555 0 0 1 12.7 1.7l9.3 9.3 1-9-4.722-4.092-4.285-1.3a14 14 0 0 0 -4.076-.608z" fill="#52b788"/><path d="m8 61a14.876 14.876 0 0 1 13.424-10.579l7.576-.421-1 11-4.971-1.912a15.983 15.983 0 0 0 -15.029 1.912z" fill="#52b788"/><path d="m19.029 53.958a24.057 24.057 0 0 0 -11.029 7.042 15.983 15.983 0 0 1 15.029-1.912l4.971 1.912 1-8-2-2-1.265-.819-4.311.24a14.769 14.769 0 0 0 -3.769.709z" fill="#40916c"/><path d="m3 49a14.162 14.162 0 0 1 18.752-3.043l6.248 4.043-1 9-7.831-6.787a16.649 16.649 0 0 0 -16.169-3.213z" fill="#95d5b2"/><path d="m21.752 45.957 6.248 4.043-1 9-7.831-6.787a16.649 16.649 0 0 0 -16.169-3.213l3.158-1.579a21.5 21.5 0 0 1 14.308-1.752z" fill="#52b788"/><path d="m21.054 17.207a1 1 0 0 1 -.867-.5l-3.464-6a1 1 0 1 1 1.732-1l3.464 6a1 1 0 0 1 -.865 1.5z" fill="#efad1b"/><path d="m14.429 5.732a1 1 0 0 1 -.867-.5l-.422-.732a1 1 0 0 1 1.732-1l.422.732a1 1 0 0 1 -.865 1.5z" fill="#efad1b"/><path d="m21.026 10.16a5.409 5.409 0 0 0 -5.2 3l-2.264-7.928 1.732-1z" fill="#fcea42"/><path d="m24.856 6.794-.133.051a6.912 6.912 0 0 0 -3.7 3.315l-5.729-5.928a3.888 3.888 0 0 1 3.553-.172z" fill="#95d5b2"/><path d="m15.83 13.16h-.535a6.337 6.337 0 0 0 -4.295 1.634l.637-6.571a3.886 3.886 0 0 1 1.925-2.991z" fill="#95d5b2"/><path d="m21.03 10.16a5.411 5.411 0 0 0 -5.2 3l-1.51-5.28a11.454 11.454 0 0 0 1.68.12 11.749 11.749 0 0 0 2.65-.3z" fill="#fdc741"/><path d="m24.86 6.79-.14.06a6.877 6.877 0 0 0 -3.69 3.31l-2.38-2.46a6.575 6.575 0 0 0 3.71-2.04z" fill="#52b788"/><path d="m15.83 13.16h-.54a6.36 6.36 0 0 0 -4.29 1.63l.64-6.57a3.752 3.752 0 0 1 .23-.99 9.756 9.756 0 0 0 2.45.65z" fill="#52b788"/><path d="m32.926 29.122-3.852-1.078 5.989-21.39a5 5 0 0 1 7.186-3.054l9.7 5.222-1.9 3.522-9.7-5.223a1 1 0 0 0 -1.438.611z" fill="#fcea42"/><path d="m51.95 8.82-1.9 3.52-9.7-5.22a.994.994 0 0 0 -1.43.61l-5.99 21.39-3.86-1.08 5.99-21.39a5.049 5.049 0 0 1 1.64-2.51 4.944 4.944 0 0 1 3.55.46l5.42 2.92a3.048 3.048 0 0 0 3.33-.29z" fill="#fdc741"/><path d="m30 57v-6h-4v6h-1a4 4 0 0 0 -4 4h14a4 4 0 0 0 -4-4z" fill="#00b4d8"/><path d="m35 61h-14a4 4 0 0 1 4-4h1v-6h4v3h-1a2.015 2.015 0 0 0 -2 2 3 3 0 0 0 3 3h4.46a3.989 3.989 0 0 1 .54 2z" fill="#0096c7"/><path d="m36.152 25.7-.067-.389a10.85 10.85 0 0 1 3.915-10.311h-24a10.85 10.85 0 0 1 3.915 10.311l-.068.4a19.1 19.1 0 0 1 -2.747 7.215 13 13 0 1 0 22.031.368 21.883 21.883 0 0 1 -2.979-7.594z" fill="#ade8f4"/><path d="m40.68 42.88a13 13 0 1 1 -23.58-9.95 19.127 19.127 0 0 0 2.75-7.22l.07-.4a11.265 11.265 0 0 0 .15-1.82 10.871 10.871 0 0 0 -4.07-8.49h5a10.871 10.871 0 0 1 4.07 8.49 11.265 11.265 0 0 1 -.15 1.82l-.1.55a21.057 21.057 0 0 1 -2.91 7.37c-.02.03-.04.07-.06.1a9.47 9.47 0 0 0 1.58 11.55 9.058 9.058 0 0 0 10.69 1.54z" fill="#48cae4"/><path d="m41 40a13 13 0 1 1 -23.9-7.07 19.127 19.127 0 0 0 2.75-7.22l.07-.4c.01-.07.02-.15.03-.22a34.936 34.936 0 0 0 8.05.91 34.936 34.936 0 0 0 8.05-.91c.01.07.02.15.03.22l.07.39a22.007 22.007 0 0 0 2.98 7.59 12.867 12.867 0 0 1 1.87 6.71z" fill="#48cae4"/><path d="m40.68 42.88a13 13 0 1 1 -23.58-9.95 19.127 19.127 0 0 0 2.75-7.22l.07-.4c.01-.07.02-.15.03-.22a33.466 33.466 0 0 0 4.87.78 21.008 21.008 0 0 1 -2.91 7.36c-.02.03-.04.07-.06.1a9.47 9.47 0 0 0 1.58 11.55 9.058 9.058 0 0 0 10.69 1.54z" fill="#00b4d8"/><circle cx="21" cy="46" fill="#48cae4" r="1"/><circle cx="19" cy="41" fill="#48cae4" r="1"/><circle cx="25" cy="44" fill="#ade8f4" r="1"/><path d="m56.737 57.192a13 13 0 1 1 -14.137-21.213l16.966 16.971a13.008 13.008 0 0 1 -2.829 4.242z" fill="#efad1b"/><g fill="#d8950f"><path d="m59.02 54.11a13 13 0 1 1 -20.67-15.3l.02-.02a14.011 14.011 0 0 0 13.63 17.21 13.936 13.936 0 0 0 7.02-1.89z"/><path d="m41.888 49a1 1 0 0 1 -.707-1.707l1.754-1.754a1 1 0 0 1 1.414 1.414l-1.749 1.754a1 1 0 0 1 -.712.293z"/><path d="m44.01 52.535a1 1 0 0 1 -.707-1.707l2.121-2.121a1 1 0 0 1 1.414 1.414l-2.121 2.121a1 1 0 0 1 -.707.293z"/><path d="m47.545 54.657a1 1 0 0 1 -.707-1.707l1.69-1.69a1 1 0 0 1 1.414 1.414l-1.69 1.69a1 1 0 0 1 -.707.293z"/><path d="m51.788 56.071a1 1 0 0 1 -.707-1.707l1.3-1.3a1 1 0 1 1 1.419 1.413l-1.3 1.3a1 1 0 0 1 -.712.294z"/><path d="m40.474 44.757a1 1 0 0 1 -.707-1.707l1.414-1.414a1 1 0 0 1 1.419 1.414l-1.414 1.414a1 1 0 0 1 -.712.293z"/></g><ellipse cx="51.081" cy="44.464" fill="#ade8f4" rx="7" ry="12" transform="matrix(.707 -.707 .707 .707 -16.48 49.143)"/><path d="m60.06 52.35a4.13 4.13 0 0 1 -.49.6c-1.96 1.95-7.78 2.12-13.44-3.54-4.95-4.95-5.49-11.48-3.53-13.43a4.557 4.557 0 0 1 .62-.51c-1.48 2.39-.68 8.35 3.91 12.94 5.24 5.24 10.61 5.48 12.93 3.94z" fill="#48cae4"/><path d="m57.445 48c-1.172 1.171-4.243 1.414-7.779-2.121s-3.293-6.607-2.121-7.779 4.337.095 7.071 2.829 4 5.899 2.829 7.071z" fill="#00b4d8"/><path d="m57.44 48a2.34 2.34 0 0 1 -.67.46c.5-1.43-.77-4.15-3.15-6.53s-5.11-3.66-6.53-3.16a2.209 2.209 0 0 1 .46-.67c1.17-1.17 4.33.1 7.07 2.83s4 5.9 2.82 7.07z" fill="#0096c7"/></g></g></svg>