<?xml version="1.0" encoding="UTF-8" standalone="no"?>
<!-- Created with Inkscape (http://www.inkscape.org/) -->

<svg
   version="1.1"
   id="svg897"
   xml:space="preserve"
   width="682.66669"
   height="682.66669"
   viewBox="0 0 682.66669 682.66669"
   xmlns="http://www.w3.org/2000/svg"
   xmlns:svg="http://www.w3.org/2000/svg"><defs
     id="defs901"><clipPath
       clipPathUnits="userSpaceOnUse"
       id="clipPath911"><path
         d="M 0,512 H 512 V 0 H 0 Z"
         id="path909" /></clipPath></defs><g
     id="g903"
     transform="matrix(1.3333333,0,0,-1.3333333,0,682.66667)"><g
       id="g905"><g
         id="g907"
         clip-path="url(#clipPath911)"><g
           id="g913"
           transform="translate(371.3257,219.4009)"><path
             d="m 0,0 -110.399,-122.701 c -40.5,-25.199 -83.4,-38.099 -123,-38.099 -22.2,0 -43.5,4.199 -62.4,12.6 -17.701,-12.9 -42.6,-11.4 -58.501,4.499 -15.899,15.901 -17.4,40.801 -4.499,58.5 -30.901,68.701 -3.301,167.1 68.099,238.501 71.4,71.4 169.801,98.999 238.5,68.1 17.701,12.9 42.6,11.4 58.501,-4.501 C 22.2,201 23.701,176.1 10.8,158.399 30.601,114 27.001,55.8 0,0"
             style="fill:#91dc5a;fill-opacity:1;fill-rule:nonzero;stroke:none"
             id="path915" /></g><g
           id="g917"
           transform="translate(371.3257,219.4009)"><path
             d="m 0,0 -110.399,-122.701 c -40.5,-25.199 -83.4,-38.099 -123,-38.099 -22.2,0 -43.5,4.199 -62.4,12.6 -17.701,-12.9 -42.6,-11.4 -58.501,4.499 L 6.301,216.899 C 22.2,201 23.701,176.1 10.8,158.399 30.601,114 27.001,55.8 0,0"
             style="fill:#64c37d;fill-opacity:1;fill-rule:nonzero;stroke:none"
             id="path919" /></g><g
           id="g921"
           transform="translate(512,241)"><path
             d="m 0,0 v -15 c 0,-90.899 -75.099,-165 -166,-165 -90.901,0 -165,74.101 -165,165 V 0 h 60 l 105,-45.3 6.301,-2.699 L -61,0 Z"
             style="fill:#ffda44;fill-opacity:1;fill-rule:nonzero;stroke:none"
             id="path923" /></g><g
           id="g925"
           transform="translate(512,241)"><path
             d="m 0,0 v -15 c 0,-90.899 -75.099,-165 -166,-165 v 134.7 l 6.301,-2.699 L -61,0 Z"
             style="fill:#ffad41;fill-opacity:1;fill-rule:nonzero;stroke:none"
             id="path927" /></g><g
           id="g929"
           transform="translate(71.1152,134.7197)"><path
             d="M 0,0 -21.211,21.211 0,42.422 21.211,21.211 Z"
             style="fill:#c2fb3b;fill-opacity:1;fill-rule:nonzero;stroke:none"
             id="path931" /></g><g
           id="g933"
           transform="translate(139.9043,153.3672)"><path
             d="M 0,0 -21.211,21.211 0,42.422 21.211,21.211 Z"
             style="fill:#91dc5a;fill-opacity:1;fill-rule:nonzero;stroke:none"
             id="path935" /></g><g
           id="g937"
           transform="translate(82.4678,194.9307)"><path
             d="M 0,0 -21.211,21.211 0,42.422 21.211,21.211 Z"
             style="fill:#c2fb3b;fill-opacity:1;fill-rule:nonzero;stroke:none"
             id="path939" /></g><g
           id="g941"
           transform="translate(436,226)"><path
             d="m 0,0 c 0,-49.499 -40.5,-90 -90,-90 -49.501,0 -90,40.501 -90,90 z"
             style="fill:#ffda44;fill-opacity:1;fill-rule:nonzero;stroke:none"
             id="path943" /></g><g
           id="g945"
           transform="translate(436,226)"><path
             d="M 0,0 C 0,-49.499 -40.5,-90 -90,-90 V 0 Z"
             style="fill:#ffad41;fill-opacity:1;fill-rule:nonzero;stroke:none"
             id="path947" /></g><g
           id="g949"
           transform="translate(408.4004,184.9001)"><path
             d="M 0,0 -26.1,26.1 H 11.1 C 9,16.5 5.1,7.8 0,0 M -47.4,-32.401 V 4.801 l 26.099,-26.1 C -29.101,-26.4 -37.8,-30.3 -47.4,-32.401 m -30,0 c -9.6,2.101 -18.3,6.001 -26.1,11.102 l 26.1,26.1 z M -135.901,26.1 h 37.2 L -124.801,0 c -5.099,7.8 -9,16.5 -11.1,26.1 m -31.499,30 v -15 c 0,-57.9 47.1,-105 105,-105 57.9,0 105,47.1 105,105 v 15 z"
             style="fill:#ffe98f;fill-opacity:1;fill-rule:nonzero;stroke:none"
             id="path951" /></g><g
           id="g953"
           transform="translate(408.4004,184.9001)"><path
             d="M 0,0 -26.1,26.1 H 11.1 C 9,16.5 5.1,7.8 0,0 M -47.4,-32.401 V 4.801 l 26.099,-26.1 C -29.101,-26.4 -37.8,-30.3 -47.4,-32.401 m -15,88.501 v -120 c 57.9,0 105,47.1 105,105 v 15 z"
             style="fill:#ffda44;fill-opacity:1;fill-rule:nonzero;stroke:none"
             id="path955" /></g></g></g></g></svg>
