<svg width="28" height="28" viewBox="0 0 28 28" fill="none" xmlns="http://www.w3.org/2000/svg">
<path d="M12.3375 2.01411C9.1875 0.57036 7 5.03286 7 5.03286C7 5.03286 7.91875 7.08911 9.31875 7.52661C14.3937 9.05786 18.7687 2.27661 18.7687 2.27661C18.7687 2.27661 15.4437 3.45786 12.3375 2.01411Z" fill="#77A836"/>
<path d="M3.93836 3.45703C3.76336 3.45703 3.71961 4.11328 3.89461 4.11328C6.69461 4.72578 7.83211 6.78203 7.91961 7.17578C8.05086 7.70078 8.83836 7.13203 8.57586 6.47578C8.48836 6.38828 6.86961 3.80703 3.93836 3.45703Z" fill="#947151"/>
<path d="M25.2867 25.2874C25.418 25.4187 25.943 25.5499 26.2055 25.2874C26.468 25.0249 26.3367 24.4562 26.2055 24.3249C26.0742 24.1937 25.768 24.3249 25.5492 24.5874C25.2867 24.8937 25.1992 25.1999 25.2867 25.2874Z" fill="#64892F"/>
<path d="M7.56844 8.35548C7.34969 8.04923 7.61219 7.34923 8.22469 6.69298C8.83719 6.08048 9.53719 5.77423 9.84344 5.99298C13.5184 3.63048 19.1184 4.72423 23.1434 8.88048C26.7309 12.5992 27.9997 17.6305 26.5559 21.393C27.2559 22.3117 27.0372 23.8867 25.9434 25.0242C24.8497 26.1617 23.3184 26.4242 22.4434 25.6805C18.8122 27.1242 13.9559 25.8555 10.3684 22.1367C6.34344 17.9367 5.24969 12.1617 7.56844 8.35548Z" fill="#FFE62E"/>
<path d="M8.18185 7.04375C7.5256 5.20625 4.8131 4.15625 4.8131 4.15625C4.8131 4.15625 -0.699401 7.2625 1.3131 11.2875C3.28185 15.2687 2.0131 19.6875 2.0131 19.6875C2.0131 19.6875 10.4131 13.5625 8.18185 7.04375Z" fill="#8CC63E"/>
<path d="M4.81172 4.15625C4.41797 4.68125 4.06797 5.25 3.80547 5.8625C3.54297 6.475 3.36797 7.175 3.28047 7.875C3.10547 9.275 3.28047 10.6312 3.36797 11.9875C3.49922 13.3 3.49922 14.6562 3.28047 15.9688C3.06172 17.2812 2.58047 18.55 2.01172 19.7312C2.36172 19.2062 2.66797 18.5937 2.97422 17.9812C3.23672 17.3687 3.45547 16.7125 3.63047 16.0563C3.93672 14.6563 3.93672 13.2563 3.80547 11.9C3.67422 10.5438 3.49922 9.1875 3.63047 7.875C3.71797 6.5625 4.19922 5.29375 4.81172 4.15625Z" fill="#7FB539"/>
</svg>
