<svg id="Layer_1" enable-background="new 0 0 512 512" height="512" viewBox="0 0 512 512" width="512" xmlns="http://www.w3.org/2000/svg"><g><path d="m392.312 122.903s183.363 152.523 96.176 301.316-309.877 63.384-309.877 63.384z" fill="#80d261"/><path d="m392.312 122.903-10.93 18.653c44.987 45.1 145.12 165.046 76.201 282.664-37.352 63.744-99.572 84.502-158.499 87.408 66.964 3.108 145.423-12.351 189.404-87.408 87.187-148.793-96.176-301.317-96.176-301.317z" fill="#68ca44"/><path d="m362.624 249.784c0 119.406-81.178 224.099-181.312 224.099s-181.312-104.693-181.312-224.099c0-81.671 37.971-154.754 94.008-192.793 10.621-7.21 20.066-16.051 28.043-26.109 15.01-18.924 36.013-30.882 59.261-30.882s44.251 11.958 59.26 30.882c7.978 10.058 17.422 18.899 28.043 26.109 56.038 38.039 94.009 111.122 94.009 192.793z" fill="#80d261"/><path d="m268.615 56.99c-10.621-7.21-20.066-16.051-28.043-26.109-15.009-18.923-36.012-30.881-59.26-30.881-5.282 0-10.446.623-15.453 1.8 17.028 4 32.208 14.458 43.807 29.082 7.978 10.058 17.422 18.899 28.043 26.109 56.038 38.039 94.009 111.122 94.009 192.794 0 113.198-72.96 213.156-165.859 223.246 5.095.554 10.246.853 15.453.853 100.134 0 181.312-104.693 181.312-224.099 0-81.672-37.971-154.755-94.009-192.795z" fill="#68ca44"/><path d="m392.31 122.9c-41.54-24.34-123.05 37.57-182.06 138.28-59.02 100.71-73.18 202.08-31.64 226.42s123.05-37.56 182.07-138.27c59.01-100.71 73.17-202.09 31.63-226.43zm-4.64 80.87c-5.5 39.38-23.29 86.26-50.1 132.02-22.71 38.75-50.25 73.36-77.55 97.45-23.32 20.58-46.01 32.87-60.69 32.87-2.97 0-5.32-.53-7.18-1.62-7.81-4.57-13.59-24.21-8.9-57.75 5.5-39.38 23.3-86.26 50.11-132.02 22.71-38.76 50.25-73.37 77.54-97.45 23.33-20.59 46.01-32.88 60.69-32.88 2.97 0 5.32.53 7.18 1.62 7.81 4.58 13.59 24.21 8.9 57.76z" fill="#d5efc8"/><path d="m199.332 466.113c-2.973 0-5.321-.529-7.18-1.619-7.809-4.575-13.591-24.209-8.903-57.758 5.502-39.376 23.297-86.26 50.108-132.015 22.71-38.758 50.249-73.368 77.544-97.454 23.326-20.584 46.014-32.873 60.691-32.873 2.972 0 5.32.53 7.179 1.619 7.809 4.576 13.591 24.21 8.903 57.758-5.502 39.376-23.297 86.26-50.108 132.015-22.71 38.758-50.25 73.368-77.544 97.454-23.326 20.584-46.014 32.873-60.69 32.873z" fill="#fed15b"/><path d="m378.771 146.013c-1.859-1.089-4.207-1.619-7.179-1.619-5.628 0-12.438 1.813-20.006 5.202 5.733 7.989 9.083 26.26 5.183 54.174-5.502 39.376-23.297 86.26-50.108 132.015-22.71 38.758-50.25 73.368-77.544 97.454-14.381 12.691-28.517 22.222-40.685 27.671 1.157 1.612 2.409 2.815 3.72 3.583 1.859 1.09 4.207 1.619 7.18 1.619 14.676 0 37.364-12.289 60.69-32.873 27.295-24.087 54.834-58.696 77.544-97.454 26.811-45.755 44.606-92.639 50.108-132.015 4.687-33.548-1.095-53.181-8.903-57.757z" fill="#fec344"/><path d="m401.49 231.492c-2.137-3.548-6.746-4.689-10.294-2.554l-80.876 48.726 81.87-139.719c2.095-3.574.895-8.168-2.679-10.262-3.576-2.094-8.169-.895-10.263 2.679l-83.74 142.909-1.029-88.444c-.048-4.112-3.396-7.413-7.497-7.413-.029 0-.06 0-.089 0-4.143.048-7.461 3.445-7.412 7.587l1.285 110.467-103.326 62.251c-3.548 2.138-4.691 6.747-2.554 10.295 1.407 2.337 3.888 3.63 6.431 3.63 1.318 0 2.652-.347 3.863-1.077l82.406-49.648-88.855 151.64c-2.095 3.574-.895 8.168 2.679 10.262 1.191.698 2.497 1.03 3.785 1.03 2.575 0 5.082-1.327 6.478-3.709l89.465-152.68 1.048 90.143c.049 4.112 3.396 7.413 7.498 7.413h.089c4.143-.048 7.461-3.445 7.412-7.587l-1.321-113.547 103.071-62.098c3.549-2.137 4.693-6.746 2.555-10.294z" fill="#d5efc8"/><g fill="#4fc123"><path d="m130.438 70.673-11.535 12.091c-2.859 2.997-2.747 7.745.25 10.604 1.452 1.385 3.315 2.073 5.176 2.073 1.979 0 3.954-.778 5.428-2.323l11.535-12.091c2.859-2.997 2.747-7.745-.25-10.604-2.998-2.858-7.746-2.747-10.604.25z"/><path d="m242.83 82.764-11.535-12.091c-2.859-2.996-7.606-3.107-10.604-.25-2.997 2.859-3.109 7.607-.25 10.604l11.535 12.091c1.474 1.544 3.449 2.323 5.428 2.323 1.86 0 3.724-.688 5.176-2.073 2.997-2.859 3.109-7.607.25-10.604z"/><path d="m181.564 79.203c-4.143 0-7.5 3.358-7.5 7.5v16.196c0 4.142 3.357 7.5 7.5 7.5s7.5-3.358 7.5-7.5v-16.196c0-4.142-3.357-7.5-7.5-7.5z"/></g></g></svg>