<svg width="29" height="28" viewBox="0 0 29 28" fill="none" xmlns="http://www.w3.org/2000/svg">
<path d="M21.4941 4.22479C26.6356 8.44229 27.354 15.9795 23.1041 21.0729C18.8568 26.1619 11.1026 26.8147 5.9672 22.6033L4.43158 21.3433C4.31931 21.252 4.22635 21.1392 4.15811 21.0116C4.08987 20.884 4.04772 20.7441 4.03412 20.6C4.02052 20.4559 4.03574 20.3106 4.07889 20.1724C4.12204 20.0343 4.19226 19.9061 4.28546 19.7954L18.3152 3.04529C18.5048 2.821 18.775 2.68019 19.0675 2.65318C19.3599 2.62618 19.6513 2.71514 19.8788 2.90091L21.4941 4.22479Z" fill="#44911B"/>
<path d="M4.22314 19.8719C4.13708 19.9745 4.07358 20.094 4.03676 20.2227C3.99995 20.3514 3.99065 20.4865 4.00947 20.619C4.02829 20.7516 4.0748 20.8787 4.14599 20.9921C4.21717 21.1055 4.31144 21.2026 4.42264 21.2771C9.52914 24.7754 16.5816 23.8846 20.6189 19.0634C24.6579 14.243 24.2326 7.22027 19.8104 2.90389C19.7142 2.80998 19.5998 2.73686 19.4742 2.68906C19.3486 2.64127 19.2144 2.61982 19.0802 2.62606C18.9459 2.63229 18.8144 2.66608 18.6937 2.72532C18.5731 2.78455 18.4659 2.86797 18.3789 2.97039L4.22314 19.8719Z" fill="#86D72F"/>
<path d="M19.4635 18.1164C23.1937 13.6626 22.5672 7.0345 18.0662 3.34375L4.53516 19.498C9.03616 23.1905 15.7334 22.5693 19.4627 18.1155" fill="#FFF3D7"/>
<path d="M13.2806 10.6188L18.3512 11.1963C19.2612 11.3005 20.0111 10.4911 19.8195 9.60384C19.4088 7.70686 18.3668 6.0053 16.8637 4.77734L12.8536 9.56622C12.7787 9.65581 12.7296 9.76409 12.7115 9.87945C12.6934 9.99481 12.707 10.1129 12.7509 10.2211C12.7947 10.3294 12.8672 10.4236 12.9605 10.4938C13.0538 10.564 13.1644 10.6075 13.2806 10.6197V10.6188ZM12.0608 12.9796L13.684 18.1473C13.7447 18.3375 13.8469 18.5118 13.9833 18.6575C14.1196 18.8033 14.2867 18.9169 14.4724 18.9901C14.6581 19.0633 14.8578 19.0943 15.0569 19.0808C15.256 19.0673 15.4497 19.0097 15.6238 18.9121C17.4545 17.8796 18.8474 16.2168 19.543 14.2335C19.8203 13.4337 19.2726 12.5858 18.423 12.4887L12.9901 11.8701C12.8473 11.8527 12.7025 11.8712 12.5687 11.9241C12.435 11.9769 12.3165 12.0623 12.2242 12.1725C12.1319 12.2828 12.0686 12.4144 12.04 12.5553C12.0115 12.6963 12.0186 12.8421 12.0608 12.9796ZM12.3863 18.318L10.8726 13.495C10.8366 13.3836 10.7715 13.2839 10.684 13.2062C10.5965 13.1285 10.4898 13.0757 10.3749 13.0532C10.2601 13.0307 10.1413 13.0393 10.0309 13.0782C9.92058 13.1171 9.82265 13.1849 9.74733 13.2745L5.73633 18.0633C7.24552 19.3012 9.12592 19.9977 11.0773 20.0417C11.9935 20.0636 12.6585 19.1842 12.3863 18.318Z" fill="#AAE64B"/>
</svg>
