<svg id="Capa_1" enable-background="new 0 0 512 512" viewBox="0 0 512 512" xmlns="http://www.w3.org/2000/svg"><g><g><path d="m256 22c-135.31 0-245 109.69-245 245 0 128.575 99.046 234.006 225 244.184l20-10.363 20 10.363c125.954-10.178 225-115.609 225-244.184 0-135.31-109.69-245-245-245z" fill="#4fabf7"/></g><g><circle cx="256" cy="282" fill="#2e8be6" r="200"/></g><g><path d="m366.476 10.888c-15.222-6.987-32.154-10.888-50-10.888-66.274 0-120 53.726-120 120s53.726 120 120 120c17.845 0 34.778-3.901 50-10.888z" fill="#38c674"/></g><g><path d="m366.476 10.888c-41.309 18.961-70 60.683-70 109.112s28.691 90.151 70 109.112c41.309-18.961 70-60.683 70-109.112s-28.691-90.151-70-109.112z" fill="#49d88b"/></g><g><circle cx="316.476" cy="120" fill="#ff9100" r="41.03"/></g><g><g><path d="m305.253 30.696c-24.622 3.077-46.185 16.14-60.497 34.995-3.62 4.769-2.167 11.65 3.018 14.644l53.702 31.005c6.667 3.849 15-.962 15-8.66v-62.05c0-6.008-5.262-10.679-11.223-9.934z" fill="#ffc839"/></g><g><path d="m388.197 65.691c-14.312-18.854-35.875-31.918-60.497-34.994-5.961-.745-11.223 3.919-11.223 9.926v62.058c0 7.698 8.333 12.509 15 8.66l53.703-31.005c5.184-2.995 6.637-9.876 3.017-14.645z" fill="#ffdd40"/></g><g><path d="m247.743 80.317c-5.172-2.986-11.844-.825-14.175 4.674-4.564 10.767-7.091 22.598-7.091 35.009s2.527 24.243 7.091 35.009c2.331 5.499 9.003 7.66 14.175 4.674l53.733-31.023c6.667-3.849 6.667-13.471 0-17.321z" fill="#ffdd40"/></g><g><path d="m385.21 80.316-53.734 31.023c-6.667 3.849-6.667 13.471 0 17.32l53.734 31.023c5.172 2.986 11.844.825 14.175-4.674 4.565-10.767 7.091-22.599 7.091-35.01s-2.527-24.243-7.091-35.01c-2.331-5.497-9.003-7.658-14.175-4.672z" fill="#ffc839"/></g><g><path d="m244.756 174.309c14.312 18.855 35.875 31.918 60.497 34.995 5.961.745 11.223-3.926 11.223-9.933v-62.05c0-7.698-8.333-12.509-15-8.66l-53.702 31.005c-5.185 2.993-6.638 9.874-3.018 14.643z" fill="#ffc839"/></g><g><path d="m316.476 210c29.243 0 55.271-14.02 71.721-35.691 3.62-4.769 2.168-11.65-3.018-14.644l-53.703-31.005c-6.667-3.849-15 .962-15 8.66z" fill="#ffdd40"/></g></g><g><path d="m191 141h-160c-10.869 0-19.918 8.678-19.998 19.546-.172 23.263 12.896 43.49 32.117 53.596 17.25 9.069 27.881 27.132 27.881 46.622 0 76.331 46.23 141.859 112.218 170.123 31.843 13.639 52.782 44.595 52.782 79.236v1.061c6.597.533 13.265.816 20 .816s13.403-.283 20-.816v-1.061c0-34.641 20.939-65.596 52.782-79.235 2.429-1.04 4.828-2.138 7.202-3.278v-160.61z" fill="#d3dcfb"/></g><g><path d="m481 141h-290c-11.046 0-20 8.954-20 20 0 22.854 12.778 42.724 31.58 52.855 17.35 9.349 28.42 27.2 28.42 46.909 0 73.51 42.875 137.004 104.982 166.844 62.124-29.831 105.018-93.322 105.018-166.844 0-19.49 10.631-37.553 27.882-46.622 19.221-10.105 32.289-30.333 32.117-53.596-.081-10.868-9.13-19.546-19.999-19.546z" fill="#e9efff"/></g><g><path d="m230.67 254.936c-32.443-7.151-68.735-13.396-123.38-15.323-11.775-.415-21.33 9.144-21.29 20.927v.225c0 93.738 76.262 170 170 170 22.375 0 43.75-4.353 63.334-12.243z" fill="#ffc839"/></g><g><path d="m400.315 281.751c-80.737-3.246-120.834-16.055-169.645-26.814.215 1.92.33 3.863.33 5.826 0 66.74 35.345 125.218 88.334 157.757 48.108-19.383 85.387-60.155 99.978-110.478 3.724-12.843-5.635-25.754-18.997-26.291z" fill="#ffdd40"/></g><g><circle cx="335.984" cy="355.182" fill="#ffc839" r="20"/></g><g><circle cx="180.681" cy="361.249" fill="#ffb332" r="20"/></g><g><circle cx="142.369" cy="322" fill="#ffb332" r="15"/></g></g><g/><g/><g/><g/><g/><g/><g/><g/><g/><g/><g/><g/><g/><g/><g/></svg>