<svg id="Capa_1" enable-background="new 0 0 512 512" viewBox="0 0 512 512" xmlns="http://www.w3.org/2000/svg"><g><g><path d="m96 452.539h320c52.052-44.927 85-111.384 85-185.539 0-135.31-109.69-245-245-245s-245 109.69-245 245c0 74.155 32.948 140.611 85 185.539z" fill="#7255ce"/></g><g><circle cx="256" cy="282" fill="#5c45bf" r="200"/></g><g><g><path d="m416 10.888c-15.222-6.987-32.155-10.888-50-10.888-66.274 0-120 53.726-120 120s53.726 120 120 120c17.845 0 34.778-3.901 50-10.888z" fill="#ff9100"/></g><g><path d="m416 10.888c-41.309 18.961-70 60.683-70 109.112s28.691 90.151 70 109.112c41.309-18.961 70-60.683 70-109.112s-28.691-90.151-70-109.112z" fill="#ffb332"/></g><g><g><path d="m297.267 80.317c-5.172-2.986-11.844-.825-14.175 4.674-4.565 10.766-7.092 22.598-7.092 35.009s2.527 24.243 7.091 35.009c2.331 5.499 9.003 7.66 14.175 4.674l53.734-31.023c6.667-3.849 6.667-13.471 0-17.321l-17.909-32.37z" fill="#ffdd40"/></g><g><path d="m437.721 65.691c-14.312-18.854-35.875-31.918-60.497-34.994-5.961-.746-11.224 3.918-11.224 9.925l-20 31.034 20 31.024c0 7.698 8.333 12.509 15 8.66l35-.574 18.703-30.431c5.185-2.994 6.638-9.875 3.018-14.644z" fill="#ffdd40"/></g><g><path d="m354.777 30.696c-24.622 3.077-46.185 16.14-60.497 34.995-3.62 4.769-2.167 11.65 3.018 14.644l53.702 31.005c6.667 3.849 15-.962 15-8.66v-62.05c0-6.008-5.262-10.679-11.223-9.934z" fill="#ffc839"/></g><g><path d="m366 210c29.243 0 55.271-14.02 71.721-35.691 3.62-4.769 2.168-11.65-3.018-14.644l-12.218-29.524-41.485-1.481c-6.667-3.849-15 .962-15 8.66z" fill="#ffdd40"/></g><g><path d="m434.734 80.316-53.734 31.024c-6.667 3.849-6.667 13.471 0 17.32l53.734 31.023c5.172 2.986 11.844.825 14.175-4.674 4.565-10.766 7.091-22.598 7.091-35.009s-2.527-24.243-7.091-35.01c-2.331-5.499-9.003-7.66-14.175-4.674z" fill="#ffc839"/></g></g></g><g><path d="m111 464.485h76.868l18.132-362.485h-90c-11.046 0-20 8.954-20 20v330.539c4.837 4.175 9.839 8.163 14.995 11.954z" fill="#bec8f7"/></g><g><path d="m400.995 464.485c5.156-3.792 10.167-7.771 15.005-11.946v-330.539c0-11.046-8.954-20-20-20h-190c-11.046 0-20 8.954-20 20v342.485z" fill="#d3dcfb"/></g><g><path d="m346 170.32-15.858-15.858c-7.81-7.81-20.474-7.81-28.284 0l-42.427 42.426c-7.811 7.81-7.811 20.474 0 28.284l42.427 42.426c7.81 7.81 20.474 7.81 28.284 0l15.858-15.856z" fill="#e9efff"/></g><g><g><path d="m372.569 196.889-26.569-26.569-26.569 26.569c-7.811 7.81-7.811 20.474 0 28.284l26.569 26.569 26.569-26.569c7.81-7.81 7.81-20.474 0-28.284z" fill="#fff"/></g></g><g><path d="m111 209.839v254.646c22.4 16.474 47.702 29.224 75 37.35l20-156-20-151.191c-15.687-2.187-33.351-3.88-54.154-4.788-11.365-.497-20.846 8.607-20.846 19.983z" fill="#38c674"/></g><g><g><path d="m381.835 228.44c-94.699-3.91-125.002-23.92-195.835-33.796v307.193c22.18 6.605 45.673 10.163 70 10.163 54.265 0 104.399-17.654 145-47.515v-216.064c0-10.718-8.456-19.538-19.165-19.981z" fill="#49d88b"/></g></g><g><path d="m229.667 276.667h-50c-11.046 0-20 8.954-20 20v60c0 11.046 8.954 20 20 20h50z" fill="#e9efff"/></g><g><g><path d="m239.667 276.667h-10c-11.046 0-20 8.954-20 20v60c0 11.046 8.954 20 20 20h10c11.046 0 20-8.954 20-20v-60c0-11.046-8.954-20-20-20z" fill="#fff"/></g></g><g><path d="m253.128 347.267c5.121-5.121 11.46-9.822 18.607-13.886l65.553 65.553c-4.064 7.147-8.765 13.486-13.886 18.607-20.035 20.035-48.356 24.103-75.391 10.713-2.423-1.2-4.397-3.174-5.597-5.597-13.389-27.034-9.321-55.355 10.714-75.39z" fill="#15a04d"/></g><g><path d="m351.473 329.859c-.762-5.544-5.119-9.901-10.663-10.663-23.767-3.266-49.486 3.049-69.078 14.193-17.671 39.101 26.456 83.224 65.556 65.545 11.14-19.592 17.451-45.312 14.185-69.075z" fill="#21b75d"/></g><g><circle cx="352.333" cy="449" fill="#38c674" r="20"/></g><g><circle cx="194.667" cy="456.043" fill="#21b75d" r="20"/></g><g><circle cx="151" cy="420.5" fill="#21b75d" r="15"/></g><g><circle cx="316" cy="273.457" fill="#38c674" r="15"/></g></g><g/><g/><g/><g/><g/><g/><g/><g/><g/><g/><g/><g/><g/><g/><g/></svg>