<svg width="29" height="28" viewBox="0 0 29 28" fill="none" xmlns="http://www.w3.org/2000/svg">
<path d="M19.7937 27.9984H15.4187L12.9688 14.5234H15.7688L19.7937 27.9984Z" fill="#947151"/>
<path d="M15.1566 26.557L15.3316 27.607L18.0004 27.0383L15.1566 26.557ZM14.6316 23.6258L14.8066 24.6758L17.4754 24.1508L14.6316 23.6258ZM14.1066 20.782L14.2816 21.7445L16.7754 21.2633L14.1066 20.782ZM13.5816 17.8945L13.7566 18.857L16.1629 18.3758L13.5816 17.8945ZM13.0566 15.0508L13.2316 15.9258L15.4629 15.4883L13.0566 15.0508ZM19.2254 26.1195L18.9629 25.1133L16.5129 25.5945L19.2254 26.1195ZM18.3504 23.1883L18.0879 22.2695L15.8129 22.707L18.3504 23.1883ZM17.4754 20.257L17.2129 19.382L15.0254 19.8195L17.4754 20.257ZM16.6004 17.3695L16.3379 16.4508L14.0629 16.932L16.6004 17.3695Z" fill="#6D533E"/>
<path d="M14.5 12.512C19.4 11.287 26.2687 12.4683 22.8562 17.8495L22.6375 16.537L21.4125 17.587L21.7625 15.9683L20.5813 16.9745L20.8 15.4433L19.4875 16.4058L19.7937 14.6995L18.3063 15.662L18.525 14.1745L17.0813 15.0933L17.2562 13.7808L15.9875 14.3933V13.3433L15.1125 13.6495L14.5 12.512Z" fill="#83BF4F"/>
<path d="M14.4138 13.6927C13.8013 7.78642 16.4701 -0.876083 22.5076 2.49267L20.8451 2.97392L21.9388 4.33017L19.9701 4.15517L20.9763 5.46767L19.0951 5.42392L20.0576 6.86767L18.0013 6.78017L18.9638 8.48642L17.1263 8.44267L18.0013 10.1052H16.4263L16.9513 11.5489L15.6826 11.6802L15.9451 12.6864L14.4138 13.6927Z" fill="#75A843"/>
<path d="M14.7633 12.6416C13.757 6.69159 8.63828 -0.745911 3.51953 4.67909L5.31328 4.54784L4.61328 6.25409L6.53828 5.42284L5.88203 6.99784L7.76328 6.29784L7.19453 8.04784L9.25078 7.21659L8.76953 9.18534L10.5633 8.48534L10.1258 10.4103L11.7008 9.84159L11.5695 11.4603L12.882 11.1541L12.9258 12.2041L14.7633 12.6416Z" fill="#75A843"/>
<path d="M15.025 13.5629C11.3938 8.53166 3.43125 3.71916 1.375 10.7192L2.95 9.88791L3.08125 11.7254L4.39375 10.1942L4.56875 11.9442L5.925 10.5442L6.23125 12.3817L7.675 10.8067L8.15625 12.8192L9.46875 11.4629L9.99375 13.3879L11.1312 12.2504L11.7875 13.7817L12.7938 12.9504L13.3187 13.9129L15.025 13.5629Z" fill="#83BF4F"/>
<path d="M15.2437 12.7735C9.90622 11.7235 2.29372 13.3422 5.74997 18.8985L6.05622 17.4985L7.32497 18.5485L7.06247 16.8422L8.28747 17.8485L8.15622 16.186L9.51247 17.1485L9.29372 15.3547L10.8687 16.3172L10.6937 14.7422L12.225 15.6172L12.0937 14.261L13.45 14.8297L13.4937 13.736L14.4125 14.0422L15.2437 12.7735Z" fill="#83BF4F"/>
<path d="M13.9746 12.7307C17.5621 8.09324 25.5246 3.58699 27.6246 10.1057L26.0496 9.31824L25.9184 11.0245L24.6059 9.62449L24.4309 11.2432L23.0746 9.97449L22.8121 11.637L21.3684 10.1932L20.8871 12.0307L19.5746 10.762L19.0496 12.512L17.9121 11.462L17.2559 12.862L16.2496 12.1182L15.7246 12.9932L13.9746 12.7307Z" fill="#83BF4F"/>
<path d="M16.6008 14.2631C17.082 14.8318 17.082 15.6631 16.6008 16.1006C16.0758 16.5381 15.2883 16.4068 14.7633 15.7943C14.282 15.2256 14.282 14.3943 14.7633 13.9568C15.2883 13.5193 16.1195 13.6506 16.6008 14.2631Z" fill="#68584D"/>
<path d="M16.8181 11.7253C17.5619 12.119 17.8681 12.9065 17.5619 13.5628C17.2119 14.1753 16.3806 14.394 15.6369 14.0003C14.8931 13.6065 14.5869 12.819 14.8931 12.1628C15.1994 11.5503 16.0744 11.3753 16.8181 11.7253Z" fill="#726256"/>
<path d="M15.0254 14.8295C14.5004 15.7483 13.3629 16.142 12.5754 15.7045C11.7442 15.2233 11.5254 14.0858 12.0942 13.167C12.6192 12.2483 13.7567 11.8545 14.5442 12.292C15.3317 12.7733 15.5504 13.9108 15.0254 14.8295Z" fill="#847266"/>
</svg>
