<svg width="29" height="28" viewBox="0 0 29 28" fill="none" xmlns="http://www.w3.org/2000/svg">
<path d="M15.5492 3.98C15.5492 2.97375 14.0617 2.79875 14.0617 3.76125C14.0617 4.89875 13.4492 5.33625 13.4492 5.94875C13.4492 6.73625 15.1992 6.8675 15.1992 6.03625C15.1992 5.24875 15.5492 5.33625 15.5492 3.98Z" fill="#8E6244"/>
<path d="M14.9817 3.84995C16.2067 3.84995 13.9755 2.27495 13.9755 3.7187C13.9755 4.8562 13.1442 5.42495 13.4942 6.1687C14.2817 5.2062 13.713 3.84995 14.9817 3.84995Z" fill="#A87451"/>
<path d="M2.42578 14.3072C2.42578 7.21974 8.20078 2.88849 14.3258 6.21349C20.6258 3.01974 27.6258 7.21974 27.6258 14.3072C27.6258 20.651 24.1258 24.2385 19.7508 25.8572C18.1758 26.426 15.2008 27.1697 13.5383 27.126C12.3133 27.0822 12.357 26.4697 11.1758 26.1197C6.40703 24.7197 2.42578 21.0447 2.42578 14.3072Z" fill="#FF9463"/>
<path d="M14.675 3.62959C14.6313 3.62959 14.5875 3.58584 14.5437 3.54209C13.6687 2.22959 12.8375 2.53584 12.8375 2.53584L12.75 2.09834C12.75 2.09834 13.8 1.74834 14.85 3.23584C14.8937 3.32334 14.8937 3.49834 14.85 3.54209C14.7625 3.62959 14.7188 3.62959 14.675 3.62959Z" fill="#8CC63E"/>
<path d="M11.1312 0.917589C6.75625 0.480089 2.25 5.51134 2.25 5.51134C2.25 5.51134 5.3125 4.37384 7.9375 4.89884C10.6062 5.46759 12.9688 2.27384 12.9688 2.27384C12.9688 2.27384 12.3562 1.00509 11.1312 0.917589Z" fill="#7FB539"/>
<path d="M7.0625 4.37449C4.7875 7.43699 1.375 9.18699 1.375 9.18699C1.375 9.18699 7.89375 9.84324 11.8312 5.33699C12.9687 4.06824 12.9688 2.23074 12.9688 2.23074C12.9688 2.23074 9.38125 1.26824 7.0625 4.37449Z" fill="#8CC63E"/>
<path d="M12.9688 2.23047C12.5312 2.31797 12.0063 2.44922 11.525 2.66797C11 2.88672 10.5188 3.14922 9.99375 3.49922C8.9875 4.15547 8.025 4.98672 7.15 5.73047C6.23125 6.51797 5.3125 7.21797 4.35 7.83047C3.34375 8.35547 2.38125 8.83672 1.375 9.18672C1.85625 9.05547 2.3375 8.92422 2.81875 8.70547C3.3 8.48672 3.825 8.26797 4.35 7.96172C5.4 7.39297 6.3625 6.60547 7.28125 5.86172C8.2 5.07422 9.075 4.28672 10.0375 3.63047C11 2.97422 12.0062 2.53672 12.9688 2.23047Z" fill="#7FB539"/>
<path d="M18.2188 14.832C18.3938 16.407 18.35 17.9383 17.9125 19.4258C17.475 20.9133 16.6875 22.2695 15.375 23.4508C17.2125 22.7508 18.5688 21.3945 19.2688 19.8633C20.0125 18.332 20.2312 16.582 20.0125 14.8758C19.7937 13.1695 19.1813 11.4195 18.1312 9.84453C17.125 8.26953 15.5938 6.73828 13.625 5.86328C15.1563 7.17578 16.1188 8.66328 16.8625 10.1945C17.5625 11.682 18 13.257 18.2188 14.832Z" fill="#D97448"/>
</svg>
