<svg width="29" height="28" viewBox="0 0 29 28" fill="none" xmlns="http://www.w3.org/2000/svg">
<path d="M25.5249 3.71919C24.6061 1.40044 21.9374 0.262937 19.5749 1.18169C17.2124 2.10044 16.0749 4.72544 16.9936 7.04419C17.9561 9.36294 20.6249 10.5004 22.9874 9.58169C25.3499 8.66294 26.4874 6.03794 25.5249 3.71919Z" fill="#64892F"/>
<path d="M25.2631 3.85044C24.3881 1.66294 21.8506 0.61294 19.6631 1.48794C17.4319 2.36294 16.3819 4.81294 17.2569 7.00044C18.1319 9.18794 20.6694 10.2379 22.8569 9.36294C25.0881 8.48794 26.1819 5.99419 25.2631 3.85044Z" fill="#FDFFB8"/>
<path d="M20.0571 1.53015C20.1884 1.3989 22.5509 1.35515 22.5946 1.61765C22.6384 1.70515 22.7259 1.7489 22.7259 1.8364C22.6821 2.14265 21.4134 4.8989 21.4134 4.8989C21.3696 4.8989 21.2384 4.7239 21.1509 4.85515C21.0634 4.94265 19.8821 1.88015 19.9259 1.8364C20.0134 1.7489 19.9696 1.61765 20.0571 1.53015ZM22.5071 9.2739C22.3759 9.40515 20.0134 9.4489 19.9696 9.1864C19.9259 9.0989 19.8384 9.05515 19.8384 8.96765C19.8821 8.6614 21.1509 5.90515 21.1509 5.90515C21.1946 5.90515 21.3259 6.08015 21.4134 5.9489C21.5009 5.8614 22.6821 8.9239 22.6384 8.96765C22.5509 9.05515 22.5946 9.1864 22.5071 9.2739ZM25.2196 4.1989C25.3946 4.33015 25.3946 6.60515 25.1321 6.69265C25.0446 6.7364 25.0009 6.8239 24.9134 6.8239C24.5634 6.78015 21.7634 5.55515 21.7634 5.55515C21.7634 5.5114 21.9384 5.38015 21.8071 5.29265C21.7196 5.20515 24.8696 4.06765 24.9134 4.1114C25.0009 4.15515 25.1321 4.1114 25.2196 4.1989ZM17.3446 6.5614C17.1696 6.43015 17.1696 4.15515 17.4321 4.06765C17.5196 4.0239 17.5634 3.9364 17.6509 3.9364C18.0009 3.98015 20.8009 5.20515 20.8009 5.20515C20.8009 5.2489 20.6259 5.38015 20.7571 5.46765C20.8446 5.55515 17.6946 6.69265 17.6509 6.6489C17.5634 6.6489 17.4321 6.6489 17.3446 6.5614ZM17.6946 3.5864C17.6509 3.4114 19.3134 1.7489 19.5321 1.88015C19.6196 1.9239 19.7509 1.88015 19.7946 1.9239C19.9696 2.1864 21.1071 4.9864 21.1071 4.9864C21.0634 4.9864 20.8884 4.9864 20.8884 5.11765C20.9321 5.2489 17.8259 3.89265 17.8259 3.8489C17.8259 3.7614 17.6946 3.6739 17.6946 3.5864ZM24.9571 7.2614C25.0009 7.4364 23.3384 9.05515 23.1196 8.96765C23.0321 8.9239 22.9009 8.96765 22.8571 8.9239C22.6821 8.6614 21.5446 5.8614 21.5446 5.8614C21.5884 5.8614 21.7634 5.8614 21.7634 5.6864C21.7196 5.55515 24.8259 6.9114 24.8259 6.95515C24.8259 7.0864 24.9134 7.1739 24.9571 7.2614ZM23.1634 1.8364C23.3384 1.79265 25.0446 3.4114 24.9134 3.63015C24.8696 3.71765 24.9134 3.80515 24.8259 3.89265C24.5634 4.06765 21.6759 5.1614 21.6759 5.1614C21.6759 5.11765 21.6759 4.94265 21.5009 4.94265C21.3696 4.9864 22.7696 1.96765 22.8134 1.96765C22.9884 1.96765 23.0759 1.88015 23.1634 1.8364ZM19.4009 8.9239C19.2259 8.96765 17.5196 7.3489 17.6509 7.13015C17.6946 7.04265 17.6509 6.95515 17.7384 6.86765C18.0009 6.69265 20.8884 5.5989 20.8884 5.5989C20.8884 5.64265 20.8884 5.81765 21.0634 5.81765C21.1946 5.7739 19.7946 8.79265 19.7509 8.79265C19.5759 8.79265 19.4884 8.88015 19.4009 8.9239Z" fill="#CED74D"/>
<path d="M11.1312 3.9375C10.0375 2.84375 8.2 2.84375 7.10625 3.9375L3.125 7.83125L3.7375 8.44375L7.71875 4.55C8.50625 3.7625 9.775 3.7625 10.5625 4.55L19.3125 13.1687L19.925 12.5562L11.1312 3.9375Z" fill="#C10259"/>
<path opacity="0.8" d="M21.3692 5.42578H10.388C12.4442 10.1945 6.23171 18.8133 13.4505 20.257C15.6817 21.0445 15.5505 22.8383 14.8067 24.5883C14.0192 26.4258 12.2255 26.732 12.1817 26.7758C12.138 26.8195 12.0942 26.907 12.0942 26.9945C12.0942 27.082 12.138 27.1695 12.2255 27.1695H19.488C19.5317 27.1695 19.5755 27.082 19.6192 26.9945C19.6192 26.907 19.5755 26.7758 19.5317 26.7758C19.5317 26.7758 17.6942 26.4258 16.9067 24.5883C16.163 22.882 16.0755 21.0445 18.263 20.257C25.5255 18.7695 19.313 10.1508 21.3692 5.42578ZM15.9005 19.6445C6.75671 19.6445 13.188 10.457 11.3067 5.77578H20.4942C18.613 10.457 25.0442 19.6445 15.9005 19.6445Z" fill="#A1B8C7"/>
<g opacity="0.8">
<path d="M11.5254 14.132C11.2629 16.8008 11.7441 18.9445 15.8566 18.9445C19.2691 18.9445 20.1879 17.457 20.2316 15.4008C17.5191 15.9258 15.0691 13.5633 11.5254 14.132Z" fill="#F65500"/>
<path d="M20.2754 15.4454C20.3191 13.9142 19.8816 12.0767 19.6629 10.3704C17.3004 10.4579 15.1129 8.75167 12.1816 8.92667C12.1379 10.5892 11.7004 12.4704 11.5254 14.1329C15.0691 13.5642 17.5191 15.9267 20.2754 15.4454Z" fill="#FCB334"/>
</g>
</svg>
