<?xml version="1.0" encoding="iso-8859-1"?>
<!-- Generator: Adobe Illustrator 19.0.0, SVG Export Plug-In . SVG Version: 6.00 Build 0)  -->
<svg version="1.1" id="Layer_1" xmlns="http://www.w3.org/2000/svg" xmlns:xlink="http://www.w3.org/1999/xlink" x="0px" y="0px"
	 viewBox="0 0 512 512" style="enable-background:new 0 0 512 512;" xml:space="preserve">
<path style="fill:#97DBFF;" d="M256,512L256,512c-1.283,0-2.564-0.011-3.842-0.032C94.395,509.309,4.224,330.764,94.036,201.306
	L220.994,18.303C228.947,6.84,242.029,0,256,0l0,0c13.971,0,27.053,6.84,35.005,18.303l126.959,183.002
	c89.813,129.459-0.36,308.004-158.121,310.661C258.564,511.989,257.283,512,256,512z"/>
<path style="fill:#55C2EB;" d="M291.061,509.048c-10.071,1.737-20.488,2.739-31.22,2.919C258.564,511.989,257.283,512,256,512l0,0
	c-1.529,0-3.055-0.016-4.577-0.046C93.999,508.78,4.411,330.493,94.035,201.305L220.994,18.303C228.947,6.84,242.029,0,256,0
	c0.14,0,0.279,0.001,0.419,0.002c19.968,0.196,31.448,22.829,20.088,39.217L164.159,201.305
	C80.456,321.958,153.086,485.238,291.061,509.048z"/>
<path style="fill:#B8F4FF;" d="M378.69,400.696c0,18.442-14.98,33.391-33.461,33.391c-18.481,0-33.461-14.949-33.461-33.391
	s14.98-33.391,33.461-33.391C363.71,367.304,378.69,382.254,378.69,400.696z M389.844,300.522c-12.32,0-22.308,9.966-22.308,22.261
	s9.987,22.261,22.308,22.261c12.32,0,22.308-9.966,22.308-22.261S402.164,300.522,389.844,300.522z"/>
<g>
</g>
<g>
</g>
<g>
</g>
<g>
</g>
<g>
</g>
<g>
</g>
<g>
</g>
<g>
</g>
<g>
</g>
<g>
</g>
<g>
</g>
<g>
</g>
<g>
</g>
<g>
</g>
<g>
</g>
</svg>
